<svg xmlns="http://www.w3.org/2000/svg" width="96" height="32" viewBox="0 0 96 32" shape-rendering="crispEdges">
  <rect x="0" y="0" width="16" height="16" fill="#b48353"/>
  <rect x="0" y="0" width="1" height="1" fill="#c3915f"/>
  <rect x="15" y="15" width="1" height="1" fill="#8c6135"/>

  <rect x="16" y="0" width="16" height="16" fill="#e8dfd4"/>
  <rect x="16" y="0" width="16" height="1" fill="#d5c8b8"/>
  <rect x="16" y="15" width="16" height="1" fill="#d5c8b8"/>

  <rect x="32" y="0" width="16" height="16" fill="#9a6b3f"/>
  <rect x="32" y="0" width="16" height="2" fill="#7b532f"/>

  <rect x="48" y="0" width="16" height="16" fill="#40688a"/>
  <rect x="48" y="0" width="16" height="2" fill="#314e68"/>

  <rect x="64" y="0" width="16" height="16" fill="#2f3f59"/>
  <rect x="64" y="0" width="16" height="2" fill="#243349"/>

  <rect x="80" y="0" width="16" height="16" fill="#ddf2e3"/>
  <rect x="84" y="4" width="8" height="8" fill="#54a46f"/>
  <rect x="83" y="12" width="10" height="4" fill="#c7d7d0"/>
</svg>
